<svg width="16" height="16" viewBox="0 0 16 16" fill="none" xmlns="http://www.w3.org/2000/svg">
<g clip-path="url(#clip0_127_1790)">
<path d="M13.987 1.46875C12.877 1.46875 11.9739 2.36956 11.9739 3.47684C11.9739 4.42319 12.6336 5.21872 13.5182 5.42997V6.35319C13.5182 7.08894 12.917 7.6875 12.1781 7.6875H8.5035V5.42997C9.38819 5.21872 10.0478 4.42319 10.0478 3.47684C10.0478 2.36956 9.14475 1.46875 8.03475 1.46875C6.92475 1.46875 6.02172 2.36956 6.02172 3.47684C6.02172 4.42316 6.68134 5.21869 7.566 5.42997V7.6875H2.48178V5.42997C3.36647 5.21872 4.02606 4.42319 4.02606 3.47684C4.02606 2.36956 3.12303 1.46875 2.01303 1.46875C0.903031 1.46875 0 2.36956 0 3.47684C0 4.42316 0.659625 5.21869 1.54428 5.42997V10.5701C0.659625 10.7813 0 11.5768 0 12.5232C0 13.6304 0.903031 14.5312 2.01303 14.5312C3.12303 14.5312 4.02606 13.6304 4.02606 12.5232C4.02606 11.5768 3.36644 10.7813 2.48178 10.57V8.625H7.566V10.57C6.68134 10.7813 6.02172 11.5768 6.02172 12.5232C6.02172 13.6304 6.92475 14.5312 8.03475 14.5312C9.14475 14.5312 10.0478 13.6304 10.0478 12.5232C10.0478 11.5768 9.38816 10.7813 8.5035 10.57V8.625H12.1781C13.434 8.625 14.4557 7.60588 14.4557 6.35319V5.42997C15.3404 5.21872 16 4.42319 16 3.47684C16 2.36956 15.097 1.46875 13.987 1.46875Z" fill="black"/>
</g>
<defs>
<clipPath id="clip0_127_1790">
<rect width="16" height="16" fill="white"/>
</clipPath>
</defs>
</svg>
