<svg width="17" height="17" viewBox="0 0 17 17" fill="none" xmlns="http://www.w3.org/2000/svg">
<g clip-path="url(#clip0_127_1761)">
<path d="M6.5797 6.26921C6.41563 6.31292 6.24319 6.36701 6.0526 6.43432C6.01971 6.44594 5.98943 6.46392 5.9635 6.48724C5.93756 6.51056 5.91647 6.53876 5.90144 6.57023C5.8864 6.6017 5.87771 6.63583 5.87586 6.67065C5.87401 6.70548 5.87904 6.74034 5.89067 6.77322C5.91497 6.83903 5.96398 6.89277 6.02727 6.92302C6.09057 6.95327 6.16316 6.95765 6.22964 6.93522C6.40687 6.87258 6.56614 6.82264 6.71653 6.78257C6.7846 6.76442 6.84268 6.71998 6.87799 6.65901C6.91329 6.59804 6.92293 6.52555 6.90479 6.45748C6.88664 6.3894 6.8422 6.33132 6.78123 6.29602C6.72026 6.26071 6.64777 6.25107 6.5797 6.26921Z" fill="black"/>
<path d="M4.80799 6.92357C4.61681 6.99789 4.46273 7.0534 4.3231 7.09828C4.25603 7.11982 4.20026 7.16711 4.16805 7.22977C4.13585 7.29243 4.12985 7.36531 4.15138 7.43238C4.1738 7.49884 4.22123 7.55394 4.2836 7.58601C4.34598 7.61807 4.4184 7.62456 4.48548 7.60411C4.63555 7.55599 4.79916 7.49698 5.00052 7.41877C5.06619 7.39324 5.11902 7.34266 5.1474 7.27818C5.17578 7.21369 5.17738 7.14057 5.15185 7.0749C5.12632 7.00924 5.07574 6.9564 5.01126 6.92802C4.94677 6.89964 4.87365 6.89804 4.80799 6.92357Z" fill="black"/>
<path d="M8.58274 6.37083C8.40268 6.27989 8.21096 6.21416 8.01297 6.17551C7.9439 6.16212 7.87234 6.17668 7.81399 6.216C7.75564 6.25531 7.71527 6.31617 7.70174 6.38521C7.68821 6.45425 7.70261 6.52585 7.7418 6.58428C7.78099 6.64271 7.84176 6.68322 7.91077 6.6969C8.06089 6.72611 8.20626 6.77586 8.3428 6.84476C8.40583 6.87555 8.47838 6.88055 8.54504 6.85871C8.6117 6.83686 8.66722 6.78989 8.6998 6.72777C8.73159 6.66491 8.73712 6.592 8.71517 6.52506C8.69322 6.45813 8.64558 6.40265 8.58274 6.37083Z" fill="black"/>
<path d="M9.69825 10.8486C9.62893 10.8363 9.55756 10.8519 9.49976 10.8921C9.44196 10.9323 9.40242 10.9937 9.38982 11.063C9.35804 11.2395 9.32711 11.4163 9.29955 11.5931C9.29418 11.6275 9.29566 11.6627 9.30389 11.6966C9.31212 11.7305 9.32695 11.7624 9.34753 11.7906C9.3681 11.8188 9.39403 11.8426 9.42382 11.8608C9.4536 11.8789 9.48668 11.891 9.52114 11.8964C9.55561 11.9017 9.59079 11.9003 9.62468 11.892C9.65858 11.8838 9.69052 11.869 9.71869 11.8484C9.74685 11.8278 9.77068 11.8019 9.78883 11.7721C9.80698 11.7423 9.81908 11.7092 9.82444 11.6748C9.85136 11.5021 9.88164 11.3295 9.91264 11.1571C9.91882 11.1228 9.91818 11.0876 9.91076 11.0535C9.90333 11.0194 9.88926 10.9871 9.86935 10.9585C9.84944 10.9298 9.82409 10.9054 9.79473 10.8865C9.76537 10.8677 9.73258 10.8548 9.69825 10.8486Z" fill="black"/>
<path d="M9.89657 9.00318C9.82692 9.00319 9.76007 9.03057 9.71041 9.0794C9.66075 9.12824 9.63226 9.19462 9.63108 9.26426C9.62836 9.42133 9.61746 9.58682 9.59774 9.77022C9.59398 9.80492 9.59708 9.84002 9.60689 9.87351C9.61669 9.90701 9.633 9.93824 9.65489 9.96543C9.67677 9.99262 9.7038 10.0152 9.73443 10.032C9.76505 10.0487 9.79868 10.0592 9.83338 10.063C9.86808 10.0667 9.90318 10.0636 9.93666 10.0537C9.97015 10.0439 10.0014 10.0275 10.0285 10.0056C10.0557 9.98371 10.0783 9.95666 10.095 9.92601C10.1117 9.89537 10.1222 9.86173 10.1259 9.82703C10.1474 9.62768 10.1593 9.44649 10.1622 9.27334C10.1634 9.2029 10.1366 9.13487 10.0876 9.08421C10.0387 9.03354 9.97161 9.00439 9.90118 9.00317L9.89657 9.00318Z" fill="black"/>
<path d="M9.43164 8.07013C9.45929 8.13461 9.51101 8.18576 9.57579 8.21269C9.64057 8.23963 9.71331 8.24022 9.77852 8.21436C9.81076 8.20106 9.84007 8.18153 9.86476 8.1569C9.88945 8.13227 9.90905 8.10302 9.92244 8.07081C9.93583 8.03861 9.94274 8.00408 9.94278 7.9692C9.94282 7.93432 9.93599 7.89978 9.92268 7.86754C9.8482 7.68741 9.75589 7.51518 9.64714 7.35341C9.62778 7.32424 9.60285 7.29917 9.57377 7.27967C9.5447 7.26016 9.51205 7.24659 9.47772 7.23975C9.44338 7.2329 9.40803 7.23291 9.3737 7.23978C9.33936 7.24664 9.30673 7.26023 9.27766 7.27975C9.2486 7.29927 9.22368 7.32435 9.20434 7.35354C9.18501 7.38273 9.17163 7.41545 9.16498 7.44983C9.15834 7.48421 9.15856 7.51956 9.16562 7.55385C9.17269 7.58814 9.18646 7.6207 9.20616 7.64965C9.29512 7.78196 9.37065 7.92282 9.43164 8.07013Z" fill="black"/>
<path d="M10.5933 14.8446C10.4691 14.7486 10.3561 14.6389 10.2564 14.5176C10.2118 14.4631 10.1474 14.4286 10.0774 14.4215C10.0073 14.4144 9.93735 14.4355 9.88281 14.48C9.82827 14.5245 9.79364 14.5889 9.78652 14.6589C9.7794 14.729 9.80038 14.799 9.84485 14.8536C9.96979 15.0058 10.1115 15.1435 10.2672 15.2641C10.3232 15.3064 10.3935 15.3251 10.4631 15.3164C10.5327 15.3077 10.5962 15.2722 10.64 15.2174C10.6832 15.1617 10.7026 15.0912 10.6938 15.0213C10.6851 14.9514 10.6489 14.8878 10.5933 14.8446Z" fill="black"/>
<path d="M12.1936 15.5422C11.9974 15.487 11.8396 15.4392 11.6969 15.3916C11.63 15.3693 11.5571 15.3745 11.4941 15.406C11.431 15.4375 11.3831 15.4927 11.3608 15.5595C11.3385 15.6264 11.3437 15.6993 11.3752 15.7623C11.4067 15.8254 11.4619 15.8733 11.5288 15.8956C11.6797 15.9459 11.8453 15.9961 12.0497 16.0537C12.1175 16.0725 12.19 16.0638 12.2513 16.0293C12.3126 15.9948 12.3577 15.9374 12.3767 15.8696C12.3957 15.8019 12.3872 15.7294 12.3528 15.668C12.3185 15.6067 12.2612 15.5614 12.1936 15.5422Z" fill="black"/>
<path d="M9.78524 13.4354C9.75567 13.2732 9.73742 13.1092 9.73064 12.9446C9.72722 12.8744 9.69616 12.8085 9.64425 12.7612C9.59235 12.7139 9.52382 12.6891 9.45366 12.6922C9.3835 12.6952 9.31742 12.726 9.26986 12.7777C9.22231 12.8293 9.19716 12.8977 9.19991 12.9679C9.20781 13.1573 9.22887 13.3459 9.26295 13.5324C9.27581 13.6016 9.31566 13.663 9.37373 13.7028C9.40249 13.7226 9.43485 13.7365 9.46897 13.7437C9.5031 13.7509 9.53831 13.7514 9.5726 13.745C9.6069 13.7386 9.6396 13.7256 9.66885 13.7066C9.69809 13.6876 9.72331 13.663 9.74306 13.6342C9.7628 13.6055 9.77669 13.5731 9.78393 13.539C9.79117 13.5049 9.79161 13.4697 9.78524 13.4354Z" fill="black"/>
<path d="M2.65626 -8.72625e-05C2.18563 -0.0104826 1.72075 0.10491 1.3096 0.334179C0.898459 0.563447 0.555951 0.898286 0.31743 1.30413C0.108007 1.66558 -0.00105927 2.0764 0.00150918 2.49413C0.00407763 2.91185 0.118188 3.32131 0.332039 3.68015L2.42649 7.3046C2.44975 7.34497 2.48323 7.37851 2.52356 7.40182C2.5639 7.42514 2.60967 7.43742 2.65626 7.43742C2.70285 7.43742 2.74862 7.42514 2.78895 7.40182C2.82929 7.37851 2.86277 7.34497 2.88602 7.3046L4.98048 3.68148C5.19433 3.32239 5.30844 2.91272 5.311 2.49479C5.31357 2.07686 5.20451 1.66582 4.99509 1.30413C4.75657 0.898286 4.41406 0.563447 4.00291 0.334179C3.59177 0.10491 3.12689 -0.0104826 2.65626 -8.72625e-05ZM2.65626 3.45304C2.47238 3.45304 2.29264 3.39851 2.13975 3.29636C1.98686 3.1942 1.8677 3.049 1.79734 2.87913C1.72697 2.70925 1.70856 2.52232 1.74443 2.34198C1.78031 2.16164 1.86885 1.99598 1.99887 1.86596C2.12889 1.73594 2.29454 1.6474 2.47488 1.61153C2.65523 1.57565 2.84216 1.59407 3.01203 1.66443C3.18191 1.7348 3.32711 1.85396 3.42927 2.00684C3.53142 2.15973 3.58595 2.33948 3.58595 2.52335C3.58604 2.64546 3.56205 2.7664 3.51536 2.87923C3.46867 2.99207 3.40019 3.09459 3.31385 3.18094C3.2275 3.26729 3.12497 3.33576 3.01214 3.38245C2.8993 3.42914 2.77837 3.45313 2.65626 3.45304Z" fill="black"/>
<path d="M16.6837 10.8667C16.4374 10.468 16.0932 10.1389 15.6838 9.91059C15.2745 9.68232 14.8136 9.5625 14.3449 9.5625C13.8762 9.5625 13.4153 9.68232 13.0059 9.91059C12.5966 10.1389 12.2524 10.468 12.0061 10.8667C11.7968 11.2282 11.6876 11.6389 11.69 12.0565C11.6923 12.4742 11.806 12.8837 12.0193 13.2427L14.1138 16.8672C14.1372 16.9076 14.1708 16.9411 14.2112 16.9644C14.2517 16.9877 14.2975 17 14.3442 17C14.3909 17 14.4368 16.9877 14.4772 16.9644C14.5177 16.9411 14.5513 16.9076 14.5747 16.8672L16.6678 13.2441C16.8818 12.8851 16.9962 12.4755 16.999 12.0576C17.0018 11.6396 16.8929 11.2285 16.6837 10.8667ZM14.3436 13.0156C14.1597 13.0156 13.9799 12.9611 13.8271 12.8589C13.6742 12.7568 13.555 12.6116 13.4846 12.4417C13.4143 12.2718 13.3959 12.0849 13.4317 11.9046C13.4676 11.7242 13.5562 11.5586 13.6862 11.4286C13.8162 11.2985 13.9819 11.21 14.1622 11.1741C14.3425 11.1382 14.5295 11.1567 14.6993 11.227C14.8692 11.2974 15.0144 11.4165 15.1166 11.5694C15.2187 11.7223 15.2733 11.9021 15.2733 12.0859C15.2732 12.3325 15.1752 12.5689 15.0009 12.7433C14.8266 12.9176 14.5901 13.0156 14.3436 13.0156Z" fill="black"/>
</g>
<defs>
<clipPath id="clip0_127_1761">
<rect width="17" height="17" fill="white"/>
</clipPath>
</defs>
</svg>
