<svg id="Icons" height="512" viewBox="0 0 74 74" width="512" xmlns="http://www.w3.org/2000/svg"><path d="m62.83 55.05a7 7 0 0 0 -3.91-3.13l-.2-.06a3.47 3.47 0 0 0 -.74-.15 10 10 0 0 0 -6.19 4.59l-.96 13.7c-.15 0-.08 0 0 0l-.08 2h.76c9.87 0 11.72-8.36 11.88-9.21.82-3.11.61-5.72-.56-7.74z"/><path d="m23.17 70-1-13.67c-.85-.78-2.74-4.4-6.19-4.6a4.62 4.62 0 0 0 -.74.15h-.14a7 7 0 0 0 -4 3.15c-1.19 2-1.38 4.63-.56 7.74.16.84 2 9.21 11.88 9.21h.76l-.08-2c.15.02.21.02.07.02z"/><path d="m29.34 16.84h2v3.26h-3.4v14.82h18.13v-14.82h-3.4v-3.26h2a3.61 3.61 0 0 0 3.59-4l-.86-7.59a3.6 3.6 0 0 0 -3.61-3.25h-13.58a3.6 3.6 0 0 0 -3.6 3.24l-.86 7.61a3.61 3.61 0 0 0 3.59 4zm11.33 3.26h-7.34v-3.26h7.34z"/><path d="m57.55 49.76.3-.07h.3.21c-.8-4.9-1.84-12.86-1.37-19.17a9.54 9.54 0 0 0 -1.71-7.29c-1.55-1.91-4-3-7.21-3.15v34.79h-22.14v-34.73c-3.23.18-5.66 1.24-7.21 3.15a9.54 9.54 0 0 0 -1.72 7.29c.47 6.31-.57 14.27-1.37 19.17a.7.7 0 0 0 .14 0h.18.18c3.61.21 5.79 3 7 4.54a7.12 7.12 0 0 0 .47.6l.53.52.11.8v.7l1.06 15h-.06v.09h23.5l.16-4h.1l.87-12.32.26-.42a11.88 11.88 0 0 1 7.42-5.5z"/><path d="m27.93 36.92h18.14v15.95h-18.14z"/></svg>